<svg width="317" height="168" viewBox="0 0 317 168" fill="none" xmlns="http://www.w3.org/2000/svg">
<g clip-path="url(#clip0)">
<path d="M124.838 60.93C126.356 60.93 127.704 62.2766 127.704 63.7914V63.9597C127.704 65.4746 126.356 66.8211 124.838 66.8211H115.398H111.858C110.341 66.8211 108.992 68.1676 108.992 69.6824V69.8507C108.992 71.3656 110.341 72.7121 111.858 72.7121H117.589H156.868C177.266 51.3361 183.841 24.574 171.197 10.4356C170.692 9.76231 170.017 9.25737 169.343 8.58411H158.217H147.428H121.972C120.455 8.58411 119.107 9.93063 119.107 11.4455V11.6138C119.107 13.1286 120.455 14.4751 121.972 14.4751H142.876H150.799C152.317 14.4751 153.665 15.8216 153.665 17.3365V17.5048C153.665 19.0196 152.317 20.3662 150.799 20.3662H141.696H127.367C125.85 20.3662 124.501 21.7127 124.501 23.2275V23.3958C124.501 24.9107 125.85 26.2572 127.367 26.2572H140.516H162.094C163.611 26.2572 164.96 27.6037 164.96 29.1185V29.2868C164.96 30.8017 163.611 32.1482 162.094 32.1482H139.167H101.575C100.057 32.1482 98.7087 33.4947 98.7087 35.0095V35.1779C98.7087 36.6927 100.057 38.0392 101.575 38.0392H122.647H126.356C127.873 38.0392 129.221 39.3857 129.221 40.9006V41.0689C129.221 42.5837 127.873 43.9302 126.356 43.9302H122.647H114.386C112.869 43.9302 111.521 45.2768 111.521 46.7916V46.9599C111.521 48.4747 112.869 49.8213 114.386 49.8213H135.459H140.516C142.033 49.8213 143.382 51.1678 143.382 52.6826V52.1777C143.382 53.6925 142.033 55.039 140.516 55.039H134.11H97.8658C96.3486 55.039 95 56.3855 95 57.9004V58.0687C95 59.5835 96.3486 60.93 97.8658 60.93H98.203H116.747H124.838ZM159.397 20.1978C157.711 20.1978 156.531 18.8513 156.531 17.3365C156.531 15.6533 157.88 14.4751 159.397 14.4751C161.083 14.4751 162.263 15.8216 162.263 17.3365C162.263 18.8513 161.083 20.1978 159.397 20.1978ZM153.159 52.1777C153.159 53.8608 151.811 55.039 150.294 55.039C148.608 55.039 147.428 53.6925 147.428 52.1777C147.428 50.4945 148.776 49.3163 150.294 49.3163C151.979 49.148 153.159 50.4945 153.159 52.1777ZM136.302 43.4253C134.784 43.4253 133.436 42.0788 133.436 40.5639V40.3956C133.436 38.8808 134.784 37.5343 136.302 37.5343H145.573C147.091 37.5343 148.439 38.8808 148.439 40.3956V40.5639C148.439 42.0788 147.091 43.4253 145.573 43.4253H136.302Z" fill="url(#paint0_linear)"/>
<path d="M199.687 56.8904H189.235L198.844 11.782C199.181 9.93054 198.001 8.41571 196.147 8.41571H177.435C178.109 8.92066 178.615 9.59391 179.289 10.2672C191.932 24.4056 185.358 51.1677 164.96 72.5437H196.484C198.338 72.5437 200.193 71.0289 200.53 69.1774L202.384 60.2567C202.721 58.4052 201.541 56.8904 199.687 56.8904Z" fill="url(#paint1_linear)"/>
<path d="M240.146 60.93H239.471L241.326 52.346C241.663 50.4945 241.326 47.6331 240.314 45.95L228.177 24.2374C227.334 22.5542 224.974 21.2077 223.119 21.2077H200.193C198.338 21.2077 196.484 22.7225 196.147 24.574L186.706 69.0091C186.369 70.8606 187.549 72.3754 189.404 72.3754H233.74C233.908 72.3754 233.908 72.3754 234.077 72.3754C234.245 72.3754 234.245 72.3754 234.414 72.3754H237.954C239.134 72.3754 240.483 71.3655 240.651 70.1873L242.169 63.1181C242.337 61.9399 241.494 60.93 240.146 60.93Z" fill="url(#paint2_linear)"/>
<path d="M233.065 45.2767C232.897 46.1183 231.717 46.9599 230.368 46.9599H202.047C200.867 46.9599 200.024 45.95 200.193 44.7718L203.733 28.1086C204.07 26.9304 205.25 25.9205 206.43 25.9205H221.096C222.276 25.9205 223.794 26.7621 224.468 27.9403L232.222 41.7421C232.897 42.752 233.234 44.4352 233.065 45.2767Z" fill="white"/>
<path d="M222.951 72.5437C221.602 78.7714 215.533 83.8208 209.127 83.8208C202.89 83.8208 198.844 78.7714 200.193 72.5437C201.541 66.3161 207.61 61.2666 214.016 61.2666C220.253 61.2666 224.131 66.3161 222.951 72.5437Z" fill="url(#paint3_linear)"/>
<path d="M216.208 72.5437C215.702 75.0684 213.173 77.2565 210.476 77.2565C207.947 77.2565 206.261 75.0684 206.767 72.5437C207.273 70.019 209.802 67.8309 212.499 67.8309C215.196 67.8309 216.713 69.8507 216.208 72.5437Z" fill="white"/>
<path d="M152.485 72.5437C151.136 78.7714 145.068 83.8208 138.662 83.8208C132.424 83.8208 128.378 78.7714 129.727 72.5437C131.076 66.3161 137.144 61.2666 143.55 61.2666C149.788 61.2666 153.834 66.3161 152.485 72.5437Z" fill="url(#paint4_linear)"/>
<path d="M145.911 72.5437C145.405 75.0684 142.876 77.2565 140.179 77.2565C137.65 77.2565 135.964 75.0684 136.47 72.5437C136.976 70.019 139.505 67.8309 142.202 67.8309C144.899 67.8309 146.416 69.8507 145.911 72.5437Z" fill="white"/>
<path d="M165.297 75.7417C148.945 90.3851 129.558 97.791 114.386 96.2761C127.873 95.0979 143.55 87.8604 157.205 75.7417C181.649 53.8608 190.247 23.7324 176.592 8.58405C172.209 3.70292 165.803 0.841568 158.554 0.168308C169.174 -0.841581 178.615 1.85146 184.515 8.58405C198.507 23.7324 189.741 53.6924 165.297 75.7417Z" fill="url(#paint5_linear)"/>
</g>
<path d="M13.125 73H4.15625V28.1875H13.125V46.125H31.0312V28.1875H40V73H31.0312V55.0938H13.125V73ZM82.5938 28.1875L67.875 73H58.9062L44.25 28.1875H54.4375L63.375 58.0938L72.3438 28.1875H82.5938Z" fill="white"/>
<path d="M35.5312 152H4.15625V107.188H13.125V143.031H35.5312V152ZM82.5625 129.781C82.5625 131.906 82.2812 133.958 81.7188 135.938C81.1771 137.896 80.4062 139.74 79.4062 141.469C78.4062 143.177 77.1979 144.74 75.7812 146.156C74.3646 147.573 72.8021 148.792 71.0938 149.812C69.3854 150.812 67.5417 151.583 65.5625 152.125C63.5833 152.688 61.5312 152.969 59.4062 152.969C57.2812 152.969 55.2292 152.688 53.25 152.125C51.2917 151.583 49.4479 150.812 47.7188 149.812C46.0104 148.792 44.4479 147.573 43.0312 146.156C41.6146 144.74 40.3958 143.177 39.375 141.469C38.375 139.74 37.5938 137.896 37.0312 135.938C36.4896 133.958 36.2188 131.906 36.2188 129.781C36.2188 127.656 36.4896 125.604 37.0312 123.625C37.5938 121.646 38.375 119.802 39.375 118.094C40.3958 116.385 41.6146 114.823 43.0312 113.406C44.4479 111.99 46.0104 110.781 47.7188 109.781C49.4479 108.781 51.2917 108.01 53.25 107.469C55.2292 106.906 57.2812 106.625 59.4062 106.625C61.5312 106.625 63.5833 106.906 65.5625 107.469C67.5417 108.01 69.3854 108.781 71.0938 109.781C72.8021 110.781 74.3646 111.99 75.7812 113.406C77.1979 114.823 78.4062 116.385 79.4062 118.094C80.4062 119.802 81.1771 121.646 81.7188 123.625C82.2812 125.604 82.5625 127.656 82.5625 129.781ZM73.6562 129.781C73.6562 127.823 73.2812 125.979 72.5312 124.25C71.7812 122.5 70.7604 120.99 69.4688 119.719C68.1979 118.427 66.6875 117.406 64.9375 116.656C63.2083 115.906 61.3646 115.531 59.4062 115.531C57.4271 115.531 55.5729 115.906 53.8438 116.656C52.1146 117.406 50.6042 118.427 49.3125 119.719C48.0208 120.99 47 122.5 46.25 124.25C45.5 125.979 45.125 127.823 45.125 129.781C45.125 131.74 45.5 133.583 46.25 135.312C47 137.021 48.0208 138.521 49.3125 139.812C50.6042 141.104 52.1146 142.125 53.8438 142.875C55.5729 143.625 57.4271 144 59.4062 144C61.3646 144 63.2083 143.625 64.9375 142.875C66.6875 142.125 68.1979 141.104 69.4688 139.812C70.7604 138.521 71.7812 137.021 72.5312 135.312C73.2812 133.583 73.6562 131.74 73.6562 129.781ZM124.125 147.469C122.042 149.24 119.719 150.604 117.156 151.562C114.594 152.5 111.927 152.969 109.156 152.969C107.031 152.969 104.979 152.688 103 152.125C101.042 151.583 99.2083 150.812 97.5 149.812C95.7917 148.792 94.2292 147.583 92.8125 146.188C91.3958 144.771 90.1875 143.208 89.1875 141.5C88.1875 139.771 87.4062 137.917 86.8438 135.938C86.3021 133.958 86.0312 131.906 86.0312 129.781C86.0312 127.656 86.3021 125.615 86.8438 123.656C87.4062 121.698 88.1875 119.865 89.1875 118.156C90.1875 116.427 91.3958 114.865 92.8125 113.469C94.2292 112.052 95.7917 110.844 97.5 109.844C99.2083 108.844 101.042 108.073 103 107.531C104.979 106.969 107.031 106.688 109.156 106.688C111.927 106.688 114.594 107.167 117.156 108.125C119.719 109.062 122.042 110.417 124.125 112.188L119.438 120C118.083 118.625 116.521 117.552 114.75 116.781C112.979 115.99 111.115 115.594 109.156 115.594C107.198 115.594 105.354 115.969 103.625 116.719C101.917 117.469 100.417 118.49 99.125 119.781C97.8333 121.052 96.8125 122.552 96.0625 124.281C95.3125 125.99 94.9375 127.823 94.9375 129.781C94.9375 131.76 95.3125 133.615 96.0625 135.344C96.8125 137.073 97.8333 138.583 99.125 139.875C100.417 141.167 101.917 142.188 103.625 142.938C105.354 143.688 107.198 144.062 109.156 144.062C110.281 144.062 111.375 143.927 112.438 143.656C113.5 143.385 114.51 143.01 115.469 142.531V129.781H124.125V147.469ZM140 152H131.031V107.188H140V152ZM145.719 120.625C145.719 118.771 146.073 117.031 146.781 115.406C147.49 113.781 148.448 112.365 149.656 111.156C150.885 109.927 152.312 108.958 153.938 108.25C155.562 107.542 157.302 107.188 159.156 107.188H179.719V116.156H159.156C158.531 116.156 157.948 116.271 157.406 116.5C156.865 116.729 156.385 117.052 155.969 117.469C155.573 117.865 155.26 118.333 155.031 118.875C154.802 119.417 154.688 120 154.688 120.625C154.688 121.25 154.802 121.844 155.031 122.406C155.26 122.948 155.573 123.427 155.969 123.844C156.385 124.24 156.865 124.552 157.406 124.781C157.948 125.01 158.531 125.125 159.156 125.125H168.125C169.979 125.125 171.719 125.479 173.344 126.188C174.99 126.875 176.417 127.833 177.625 129.062C178.854 130.271 179.812 131.698 180.5 133.344C181.208 134.969 181.562 136.708 181.562 138.562C181.562 140.417 181.208 142.156 180.5 143.781C179.812 145.406 178.854 146.833 177.625 148.062C176.417 149.271 174.99 150.229 173.344 150.938C171.719 151.646 169.979 152 168.125 152H148.219V143.031H168.125C168.75 143.031 169.333 142.917 169.875 142.688C170.417 142.458 170.885 142.146 171.281 141.75C171.698 141.333 172.021 140.854 172.25 140.312C172.479 139.771 172.594 139.188 172.594 138.562C172.594 137.938 172.479 137.354 172.25 136.812C172.021 136.271 171.698 135.802 171.281 135.406C170.885 134.99 170.417 134.667 169.875 134.438C169.333 134.208 168.75 134.094 168.125 134.094H159.156C157.302 134.094 155.562 133.74 153.938 133.031C152.312 132.323 150.885 131.365 149.656 130.156C148.448 128.927 147.49 127.5 146.781 125.875C146.073 124.229 145.719 122.479 145.719 120.625ZM205.656 152H196.719V116.156H183.25V107.188H219.094V116.156H205.656V152ZM232.812 152H223.844V107.188H232.812V152ZM276.938 147.406C274.854 149.198 272.521 150.573 269.938 151.531C267.354 152.49 264.677 152.969 261.906 152.969C259.781 152.969 257.729 152.688 255.75 152.125C253.792 151.583 251.948 150.812 250.219 149.812C248.51 148.792 246.948 147.573 245.531 146.156C244.115 144.74 242.896 143.177 241.875 141.469C240.875 139.74 240.094 137.896 239.531 135.938C238.99 133.958 238.719 131.906 238.719 129.781C238.719 127.656 238.99 125.604 239.531 123.625C240.094 121.646 240.875 119.802 241.875 118.094C242.896 116.365 244.115 114.792 245.531 113.375C246.948 111.958 248.51 110.75 250.219 109.75C251.948 108.729 253.792 107.948 255.75 107.406C257.729 106.844 259.781 106.562 261.906 106.562C264.677 106.562 267.354 107.042 269.938 108C272.521 108.938 274.854 110.312 276.938 112.125L272.188 119.938C270.875 118.521 269.323 117.438 267.531 116.688C265.74 115.917 263.865 115.531 261.906 115.531C259.927 115.531 258.073 115.906 256.344 116.656C254.615 117.406 253.104 118.427 251.812 119.719C250.521 120.99 249.5 122.5 248.75 124.25C248 125.979 247.625 127.823 247.625 129.781C247.625 131.74 248 133.583 248.75 135.312C249.5 137.021 250.521 138.521 251.812 139.812C253.104 141.104 254.615 142.125 256.344 142.875C258.073 143.625 259.927 144 261.906 144C263.865 144 265.74 143.625 267.531 142.875C269.323 142.104 270.875 141.01 272.188 139.594L276.938 147.406ZM278.969 120.625C278.969 118.771 279.323 117.031 280.031 115.406C280.74 113.781 281.698 112.365 282.906 111.156C284.135 109.927 285.562 108.958 287.188 108.25C288.812 107.542 290.552 107.188 292.406 107.188H312.969V116.156H292.406C291.781 116.156 291.198 116.271 290.656 116.5C290.115 116.729 289.635 117.052 289.219 117.469C288.823 117.865 288.51 118.333 288.281 118.875C288.052 119.417 287.938 120 287.938 120.625C287.938 121.25 288.052 121.844 288.281 122.406C288.51 122.948 288.823 123.427 289.219 123.844C289.635 124.24 290.115 124.552 290.656 124.781C291.198 125.01 291.781 125.125 292.406 125.125H301.375C303.229 125.125 304.969 125.479 306.594 126.188C308.24 126.875 309.667 127.833 310.875 129.062C312.104 130.271 313.062 131.698 313.75 133.344C314.458 134.969 314.812 136.708 314.812 138.562C314.812 140.417 314.458 142.156 313.75 143.781C313.062 145.406 312.104 146.833 310.875 148.062C309.667 149.271 308.24 150.229 306.594 150.938C304.969 151.646 303.229 152 301.375 152H281.469V143.031H301.375C302 143.031 302.583 142.917 303.125 142.688C303.667 142.458 304.135 142.146 304.531 141.75C304.948 141.333 305.271 140.854 305.5 140.312C305.729 139.771 305.844 139.188 305.844 138.562C305.844 137.938 305.729 137.354 305.5 136.812C305.271 136.271 304.948 135.802 304.531 135.406C304.135 134.99 303.667 134.667 303.125 134.438C302.583 134.208 302 134.094 301.375 134.094H292.406C290.552 134.094 288.812 133.74 287.188 133.031C285.562 132.323 284.135 131.365 282.906 130.156C281.698 128.927 280.74 127.5 280.031 125.875C279.323 124.229 278.969 122.479 278.969 120.625Z" fill="#FFD336"/>
<defs>
<linearGradient id="paint0_linear" x1="202.047" y1="40.5005" x2="91.9054" y2="40.5005" gradientUnits="userSpaceOnUse">
<stop offset="0.1241" stop-color="#FE0600"/>
<stop offset="0.8621" stop-color="#FFB904"/>
</linearGradient>
<linearGradient id="paint1_linear" x1="165.613" y1="46.9001" x2="257.517" y2="19.5734" gradientUnits="userSpaceOnUse">
<stop stop-color="#F2002C"/>
<stop offset="1" stop-color="#3F7AFF"/>
</linearGradient>
<linearGradient id="paint2_linear" x1="169.938" y1="61.4436" x2="261.842" y2="34.1169" gradientUnits="userSpaceOnUse">
<stop stop-color="#EE4A17"/>
<stop offset="1" stop-color="#D238A7"/>
<stop offset="1" stop-color="#FFD53F"/>
</linearGradient>
<linearGradient id="paint3_linear" x1="176.329" y1="82.9395" x2="268.234" y2="55.6127" gradientUnits="userSpaceOnUse">
<stop stop-color="#9700F2"/>
<stop offset="1" stop-color="#3F7AFF"/>
</linearGradient>
<linearGradient id="paint4_linear" x1="202.047" y1="72.5064" x2="91.9052" y2="72.5064" gradientUnits="userSpaceOnUse">
<stop offset="0.1241" stop-color="#FE0600"/>
<stop offset="0.8621" stop-color="#FFB904"/>
</linearGradient>
<linearGradient id="paint5_linear" x1="164.105" y1="41.8281" x2="256.009" y2="14.5016" gradientUnits="userSpaceOnUse">
<stop stop-color="#F25700"/>
<stop offset="1" stop-color="#FFF73F"/>
</linearGradient>
<clipPath id="clip0">
<rect width="147" height="96.4444" fill="white" transform="translate(95)"/>
</clipPath>
</defs>
</svg>
