<svg width="219" height="39" viewBox="0 0 219 39" fill="none" xmlns="http://www.w3.org/2000/svg">
<path d="M4.92188 24H1.55859V7.19531H4.92188V13.9219H11.6367V7.19531H15V24H11.6367V17.2852H4.92188V24ZM30.9727 7.19531L25.4531 24H22.0898L16.5938 7.19531H20.4141L23.7656 18.4102L27.1289 7.19531H30.9727Z" fill="white"/>
<path d="M51.082 24H39.3164V7.19531H42.6797V20.6367H51.082V24ZM68.7188 15.668C68.7188 16.4648 68.6133 17.2344 68.4023 17.9766C68.1992 18.7109 67.9102 19.4023 67.5352 20.0508C67.1602 20.6914 66.707 21.2773 66.1758 21.8086C65.6445 22.3398 65.0586 22.7969 64.418 23.1797C63.7773 23.5547 63.0859 23.8438 62.3438 24.0469C61.6016 24.2578 60.832 24.3633 60.0352 24.3633C59.2383 24.3633 58.4688 24.2578 57.7266 24.0469C56.9922 23.8438 56.3008 23.5547 55.6523 23.1797C55.0117 22.7969 54.4258 22.3398 53.8945 21.8086C53.3633 21.2773 52.9062 20.6914 52.5234 20.0508C52.1484 19.4023 51.8555 18.7109 51.6445 17.9766C51.4414 17.2344 51.3398 16.4648 51.3398 15.668C51.3398 14.8711 51.4414 14.1016 51.6445 13.3594C51.8555 12.6172 52.1484 11.9258 52.5234 11.2852C52.9062 10.6445 53.3633 10.0586 53.8945 9.52734C54.4258 8.99609 55.0117 8.54297 55.6523 8.16797C56.3008 7.79297 56.9922 7.50391 57.7266 7.30078C58.4688 7.08984 59.2383 6.98438 60.0352 6.98438C60.832 6.98438 61.6016 7.08984 62.3438 7.30078C63.0859 7.50391 63.7773 7.79297 64.418 8.16797C65.0586 8.54297 65.6445 8.99609 66.1758 9.52734C66.707 10.0586 67.1602 10.6445 67.5352 11.2852C67.9102 11.9258 68.1992 12.6172 68.4023 13.3594C68.6133 14.1016 68.7188 14.8711 68.7188 15.668ZM65.3789 15.668C65.3789 14.9336 65.2383 14.2422 64.957 13.5938C64.6758 12.9375 64.293 12.3711 63.8086 11.8945C63.332 11.4102 62.7656 11.0273 62.1094 10.7461C61.4609 10.4648 60.7695 10.3242 60.0352 10.3242C59.293 10.3242 58.5977 10.4648 57.9492 10.7461C57.3008 11.0273 56.7344 11.4102 56.25 11.8945C55.7656 12.3711 55.3828 12.9375 55.1016 13.5938C54.8203 14.2422 54.6797 14.9336 54.6797 15.668C54.6797 16.4023 54.8203 17.0938 55.1016 17.7422C55.3828 18.3828 55.7656 18.9453 56.25 19.4297C56.7344 19.9141 57.3008 20.2969 57.9492 20.5781C58.5977 20.8594 59.293 21 60.0352 21C60.7695 21 61.4609 20.8594 62.1094 20.5781C62.7656 20.2969 63.332 19.9141 63.8086 19.4297C64.293 18.9453 64.6758 18.3828 64.957 17.7422C65.2383 17.0938 65.3789 16.4023 65.3789 15.668ZM84.3047 22.3008C83.5234 22.9648 82.6523 23.4766 81.6914 23.8359C80.7305 24.1875 79.7305 24.3633 78.6914 24.3633C77.8945 24.3633 77.125 24.2578 76.3828 24.0469C75.6484 23.8438 74.9609 23.5547 74.3203 23.1797C73.6797 22.7969 73.0938 22.3438 72.5625 21.8203C72.0312 21.2891 71.5781 20.7031 71.2031 20.0625C70.8281 19.4141 70.5352 18.7188 70.3242 17.9766C70.1211 17.2344 70.0195 16.4648 70.0195 15.668C70.0195 14.8711 70.1211 14.1055 70.3242 13.3711C70.5352 12.6367 70.8281 11.9492 71.2031 11.3086C71.5781 10.6602 72.0312 10.0742 72.5625 9.55078C73.0938 9.01953 73.6797 8.56641 74.3203 8.19141C74.9609 7.81641 75.6484 7.52734 76.3828 7.32422C77.125 7.11328 77.8945 7.00781 78.6914 7.00781C79.7305 7.00781 80.7305 7.1875 81.6914 7.54688C82.6523 7.89844 83.5234 8.40625 84.3047 9.07031L82.5469 12C82.0391 11.4844 81.4531 11.082 80.7891 10.793C80.125 10.4961 79.4258 10.3477 78.6914 10.3477C77.957 10.3477 77.2656 10.4883 76.6172 10.7695C75.9766 11.0508 75.4141 11.4336 74.9297 11.918C74.4453 12.3945 74.0625 12.957 73.7812 13.6055C73.5 14.2461 73.3594 14.9336 73.3594 15.668C73.3594 16.4102 73.5 17.1055 73.7812 17.7539C74.0625 18.4023 74.4453 18.9688 74.9297 19.4531C75.4141 19.9375 75.9766 20.3203 76.6172 20.6016C77.2656 20.8828 77.957 21.0234 78.6914 21.0234C79.1133 21.0234 79.5234 20.9727 79.9219 20.8711C80.3203 20.7695 80.6992 20.6289 81.0586 20.4492V15.668H84.3047V22.3008ZM90.2578 24H86.8945V7.19531H90.2578V24ZM92.4023 12.2344C92.4023 11.5391 92.5352 10.8867 92.8008 10.2773C93.0664 9.66797 93.4258 9.13672 93.8789 8.68359C94.3398 8.22266 94.875 7.85938 95.4844 7.59375C96.0938 7.32812 96.7461 7.19531 97.4414 7.19531H105.152V10.5586H97.4414C97.207 10.5586 96.9883 10.6016 96.7852 10.6875C96.582 10.7734 96.4023 10.8945 96.2461 11.0508C96.0977 11.1992 95.9805 11.375 95.8945 11.5781C95.8086 11.7812 95.7656 12 95.7656 12.2344C95.7656 12.4688 95.8086 12.6914 95.8945 12.9023C95.9805 13.1055 96.0977 13.2852 96.2461 13.4414C96.4023 13.5898 96.582 13.707 96.7852 13.793C96.9883 13.8789 97.207 13.9219 97.4414 13.9219H100.805C101.5 13.9219 102.152 14.0547 102.762 14.3203C103.379 14.5781 103.914 14.9375 104.367 15.3984C104.828 15.8516 105.188 16.3867 105.445 17.0039C105.711 17.6133 105.844 18.2656 105.844 18.9609C105.844 19.6562 105.711 20.3086 105.445 20.918C105.188 21.5273 104.828 22.0625 104.367 22.5234C103.914 22.9766 103.379 23.3359 102.762 23.6016C102.152 23.8672 101.5 24 100.805 24H93.3398V20.6367H100.805C101.039 20.6367 101.258 20.5938 101.461 20.5078C101.664 20.4219 101.84 20.3047 101.988 20.1562C102.145 20 102.266 19.8203 102.352 19.6172C102.438 19.4141 102.48 19.1953 102.48 18.9609C102.48 18.7266 102.438 18.5078 102.352 18.3047C102.266 18.1016 102.145 17.9258 101.988 17.7773C101.84 17.6211 101.664 17.5 101.461 17.4141C101.258 17.3281 101.039 17.2852 100.805 17.2852H97.4414C96.7461 17.2852 96.0938 17.1523 95.4844 16.8867C94.875 16.6211 94.3398 16.2617 93.8789 15.8086C93.4258 15.3477 93.0664 14.8125 92.8008 14.2031C92.5352 13.5859 92.4023 12.9297 92.4023 12.2344ZM114.879 24H111.527V10.5586H106.477V7.19531H119.918V10.5586H114.879V24ZM125.062 24H121.699V7.19531H125.062V24ZM141.609 22.2773C140.828 22.9492 139.953 23.4648 138.984 23.8242C138.016 24.1836 137.012 24.3633 135.973 24.3633C135.176 24.3633 134.406 24.2578 133.664 24.0469C132.93 23.8438 132.238 23.5547 131.59 23.1797C130.949 22.7969 130.363 22.3398 129.832 21.8086C129.301 21.2773 128.844 20.6914 128.461 20.0508C128.086 19.4023 127.793 18.7109 127.582 17.9766C127.379 17.2344 127.277 16.4648 127.277 15.668C127.277 14.8711 127.379 14.1016 127.582 13.3594C127.793 12.6172 128.086 11.9258 128.461 11.2852C128.844 10.6367 129.301 10.0469 129.832 9.51562C130.363 8.98438 130.949 8.53125 131.59 8.15625C132.238 7.77344 132.93 7.48047 133.664 7.27734C134.406 7.06641 135.176 6.96094 135.973 6.96094C137.012 6.96094 138.016 7.14062 138.984 7.5C139.953 7.85156 140.828 8.36719 141.609 9.04688L139.828 11.9766C139.336 11.4453 138.754 11.0391 138.082 10.7578C137.41 10.4688 136.707 10.3242 135.973 10.3242C135.23 10.3242 134.535 10.4648 133.887 10.7461C133.238 11.0273 132.672 11.4102 132.188 11.8945C131.703 12.3711 131.32 12.9375 131.039 13.5938C130.758 14.2422 130.617 14.9336 130.617 15.668C130.617 16.4023 130.758 17.0938 131.039 17.7422C131.32 18.3828 131.703 18.9453 132.188 19.4297C132.672 19.9141 133.238 20.2969 133.887 20.5781C134.535 20.8594 135.23 21 135.973 21C136.707 21 137.41 20.8594 138.082 20.5781C138.754 20.2891 139.336 19.8789 139.828 19.3477L141.609 22.2773ZM142.371 12.2344C142.371 11.5391 142.504 10.8867 142.77 10.2773C143.035 9.66797 143.395 9.13672 143.848 8.68359C144.309 8.22266 144.844 7.85938 145.453 7.59375C146.062 7.32812 146.715 7.19531 147.41 7.19531H155.121V10.5586H147.41C147.176 10.5586 146.957 10.6016 146.754 10.6875C146.551 10.7734 146.371 10.8945 146.215 11.0508C146.066 11.1992 145.949 11.375 145.863 11.5781C145.777 11.7812 145.734 12 145.734 12.2344C145.734 12.4688 145.777 12.6914 145.863 12.9023C145.949 13.1055 146.066 13.2852 146.215 13.4414C146.371 13.5898 146.551 13.707 146.754 13.793C146.957 13.8789 147.176 13.9219 147.41 13.9219H150.773C151.469 13.9219 152.121 14.0547 152.73 14.3203C153.348 14.5781 153.883 14.9375 154.336 15.3984C154.797 15.8516 155.156 16.3867 155.414 17.0039C155.68 17.6133 155.812 18.2656 155.812 18.9609C155.812 19.6562 155.68 20.3086 155.414 20.918C155.156 21.5273 154.797 22.0625 154.336 22.5234C153.883 22.9766 153.348 23.3359 152.73 23.6016C152.121 23.8672 151.469 24 150.773 24H143.309V20.6367H150.773C151.008 20.6367 151.227 20.5938 151.43 20.5078C151.633 20.4219 151.809 20.3047 151.957 20.1562C152.113 20 152.234 19.8203 152.32 19.6172C152.406 19.4141 152.449 19.1953 152.449 18.9609C152.449 18.7266 152.406 18.5078 152.32 18.3047C152.234 18.1016 152.113 17.9258 151.957 17.7773C151.809 17.6211 151.633 17.5 151.43 17.4141C151.227 17.3281 151.008 17.2852 150.773 17.2852H147.41C146.715 17.2852 146.062 17.1523 145.453 16.8867C144.844 16.6211 144.309 16.2617 143.848 15.8086C143.395 15.3477 143.035 14.8125 142.77 14.2031C142.504 13.5859 142.371 12.9297 142.371 12.2344Z" fill="#AC87FF"/>
<path d="M173.44 23.3743C174.021 23.3743 174.538 23.8905 174.538 24.4713V24.5358C174.538 25.1166 174.021 25.6329 173.44 25.6329H169.82H168.463C167.881 25.6329 167.364 26.1491 167.364 26.7299V26.7944C167.364 27.3752 167.881 27.8914 168.463 27.8914H170.661H185.72C193.54 19.6961 196.061 9.43576 191.213 4.01522C191.019 3.7571 190.761 3.56351 190.502 3.30539H186.237H182.1H172.341C171.759 3.30539 171.242 3.82163 171.242 4.4024V4.46693C171.242 5.04771 171.759 5.56395 172.341 5.56395H180.355H183.393C183.975 5.56395 184.492 6.08019 184.492 6.66096V6.72549C184.492 7.30626 183.975 7.82251 183.393 7.82251H179.903H174.409C173.827 7.82251 173.31 8.33875 173.31 8.91952V8.98405C173.31 9.56482 173.827 10.0811 174.409 10.0811H179.45H187.723C188.305 10.0811 188.822 10.5973 188.822 11.1781V11.2426C188.822 11.8234 188.305 12.3396 187.723 12.3396H178.933H164.521C163.939 12.3396 163.422 12.8559 163.422 13.4366V13.5012C163.422 14.0819 163.939 14.5982 164.521 14.5982H172.599H174.021C174.603 14.5982 175.12 15.1144 175.12 15.6952V15.7597C175.12 16.3405 174.603 16.8567 174.021 16.8567H172.599H169.433C168.851 16.8567 168.334 17.373 168.334 17.9538V18.0183C168.334 18.5991 168.851 19.1153 169.433 19.1153H177.511H179.45C180.032 19.1153 180.549 19.6315 180.549 20.2123V20.0187C180.549 20.5995 180.032 21.1157 179.45 21.1157H176.994H163.099C162.517 21.1157 162 21.632 162 22.2127V22.2773C162 22.858 162.517 23.3743 163.099 23.3743H163.228H170.337H173.44ZM186.689 7.75798C186.043 7.75798 185.59 7.24173 185.59 6.66096C185.59 6.01566 186.107 5.56395 186.689 5.56395C187.335 5.56395 187.788 6.08019 187.788 6.66096C187.788 7.24173 187.335 7.75798 186.689 7.75798ZM184.298 20.0187C184.298 20.664 183.781 21.1157 183.199 21.1157C182.553 21.1157 182.1 20.5995 182.1 20.0187C182.1 19.3734 182.617 18.9217 183.199 18.9217C183.845 18.8572 184.298 19.3734 184.298 20.0187ZM177.835 16.6631C177.253 16.6631 176.736 16.1469 176.736 15.5661V15.5016C176.736 14.9208 177.253 14.4046 177.835 14.4046H181.389C181.971 14.4046 182.488 14.9208 182.488 15.5016V15.5661C182.488 16.1469 181.971 16.6631 181.389 16.6631H177.835Z" fill="url(#paint0_linear)"/>
<path d="M202.136 21.8255H198.129L201.813 4.53145C201.942 3.82162 201.489 3.24084 200.779 3.24084H193.604C193.863 3.43444 194.057 3.69256 194.315 3.95068C199.163 9.37122 196.642 19.6315 188.822 27.8269H200.908C201.619 27.8269 202.33 27.2461 202.459 26.5363L203.17 23.1162C203.299 22.4063 202.847 21.8255 202.136 21.8255Z" fill="url(#paint1_linear)"/>
<path d="M217.647 23.3743H217.389L218.1 20.0833C218.229 19.3734 218.1 18.2764 217.712 17.6311L213.058 9.30672C212.735 8.66141 211.83 8.14517 211.12 8.14517H202.33C201.619 8.14517 200.908 8.72594 200.779 9.43578L197.159 26.4718C197.03 27.1816 197.482 27.7624 198.193 27.7624H215.191C215.256 27.7624 215.256 27.7624 215.321 27.7624C215.385 27.7624 215.385 27.7624 215.45 27.7624H216.807C217.259 27.7624 217.777 27.3752 217.841 26.9235L218.423 24.2132C218.487 23.7615 218.164 23.3743 217.647 23.3743Z" fill="url(#paint2_linear)"/>
<path d="M214.933 17.3729C214.868 17.6956 214.416 18.0182 213.899 18.0182H203.041C202.589 18.0182 202.265 17.6311 202.33 17.1794L203.687 10.7909C203.817 10.3391 204.269 9.95197 204.721 9.95197H210.344C210.797 9.95197 211.378 10.2746 211.637 10.7263L214.61 16.0178C214.868 16.405 214.998 17.0503 214.933 17.3729Z" fill="white"/>
<path d="M211.055 27.8269C210.538 30.2145 208.211 32.1504 205.755 32.1504C203.364 32.1504 201.813 30.2145 202.33 27.8269C202.847 25.4392 205.174 23.5033 207.63 23.5033C210.021 23.5033 211.508 25.4392 211.055 27.8269Z" fill="url(#paint3_linear)"/>
<path d="M208.47 27.8268C208.276 28.7948 207.306 29.6337 206.272 29.6337C205.303 29.6337 204.656 28.7948 204.85 27.8268C205.044 26.8589 206.014 26.02 207.048 26.02C208.082 26.02 208.664 26.7944 208.47 27.8268Z" fill="white"/>
<path d="M184.039 27.8269C183.522 30.2145 181.195 32.1504 178.739 32.1504C176.348 32.1504 174.797 30.2145 175.314 27.8269C175.831 25.4392 178.158 23.5033 180.614 23.5033C183.005 23.5033 184.556 25.4392 184.039 27.8269Z" fill="url(#paint4_linear)"/>
<path d="M181.518 27.8268C181.325 28.7948 180.355 29.6337 179.321 29.6337C178.352 29.6337 177.705 28.7948 177.899 27.8268C178.093 26.8589 179.063 26.02 180.097 26.02C181.131 26.02 181.712 26.7944 181.518 27.8268Z" fill="white"/>
<path d="M188.951 29.0529C182.682 34.6671 175.249 37.5064 169.433 36.9256C174.603 36.4739 180.614 33.6991 185.849 29.0529C195.22 20.664 198.517 9.1131 193.281 3.30538C191.601 1.43401 189.145 0.336993 186.366 0.078872C190.438 -0.308309 194.057 0.724174 196.319 3.30538C201.684 9.1131 198.323 20.5995 188.951 29.0529Z" fill="url(#paint5_linear)"/>
<defs>
<linearGradient id="paint0_linear" x1="203.041" y1="15.5418" x2="160.814" y2="15.5418" gradientUnits="userSpaceOnUse">
<stop offset="0.1241" stop-color="#FE0600"/>
<stop offset="0.8621" stop-color="#FFB904"/>
</linearGradient>
<linearGradient id="paint1_linear" x1="189.072" y1="17.9954" x2="224.307" y2="7.51859" gradientUnits="userSpaceOnUse">
<stop stop-color="#9700F2"/>
<stop offset="1" stop-color="#3F7AFF"/>
</linearGradient>
<linearGradient id="paint2_linear" x1="190.73" y1="23.5712" x2="225.965" y2="13.0944" gradientUnits="userSpaceOnUse">
<stop stop-color="#9700F2"/>
<stop offset="1" stop-color="#3F7AFF"/>
</linearGradient>
<linearGradient id="paint3_linear" x1="193.181" y1="31.8125" x2="228.416" y2="21.3357" gradientUnits="userSpaceOnUse">
<stop stop-color="#9700F2"/>
<stop offset="1" stop-color="#3F7AFF"/>
</linearGradient>
<linearGradient id="paint4_linear" x1="203.041" y1="27.8125" x2="160.813" y2="27.8125" gradientUnits="userSpaceOnUse">
<stop offset="0.1241" stop-color="#FE0600"/>
<stop offset="0.8621" stop-color="#FFB904"/>
</linearGradient>
<linearGradient id="paint5_linear" x1="188.494" y1="16.0508" x2="223.729" y2="5.57412" gradientUnits="userSpaceOnUse">
<stop stop-color="#9700F2"/>
<stop offset="1" stop-color="#3F7AFF"/>
</linearGradient>
</defs>
</svg>
