<svg width="247" height="37" viewBox="0 0 247 37" fill="none" xmlns="http://www.w3.org/2000/svg">
<path d="M5.74219 29H1.81836V9.39453H5.74219V17.2422H13.5762V9.39453H17.5V29H13.5762V21.166H5.74219V29ZM36.1348 9.39453L29.6953 29H25.7715L19.3594 9.39453H23.8164L27.7266 22.4785L31.6504 9.39453H36.1348Z" fill="white"/>
<path d="M59.5957 29H45.8691V9.39453H49.793V25.0762H59.5957V29ZM80.1719 19.2793C80.1719 20.209 80.0488 21.1068 79.8027 21.9727C79.5658 22.8294 79.2285 23.6361 78.791 24.3926C78.3535 25.14 77.8249 25.8236 77.2051 26.4434C76.5853 27.0632 75.9017 27.5964 75.1543 28.043C74.4069 28.4805 73.6003 28.8177 72.7344 29.0547C71.8685 29.3008 70.9707 29.4238 70.041 29.4238C69.1113 29.4238 68.2135 29.3008 67.3477 29.0547C66.4909 28.8177 65.6842 28.4805 64.9277 28.043C64.1803 27.5964 63.4967 27.0632 62.877 26.4434C62.2572 25.8236 61.724 25.14 61.2773 24.3926C60.8398 23.6361 60.498 22.8294 60.252 21.9727C60.015 21.1068 59.8965 20.209 59.8965 19.2793C59.8965 18.3496 60.015 17.4518 60.252 16.5859C60.498 15.7201 60.8398 14.9134 61.2773 14.166C61.724 13.4186 62.2572 12.735 62.877 12.1152C63.4967 11.4954 64.1803 10.9668 64.9277 10.5293C65.6842 10.0918 66.4909 9.75456 67.3477 9.51758C68.2135 9.27148 69.1113 9.14844 70.041 9.14844C70.9707 9.14844 71.8685 9.27148 72.7344 9.51758C73.6003 9.75456 74.4069 10.0918 75.1543 10.5293C75.9017 10.9668 76.5853 11.4954 77.2051 12.1152C77.8249 12.735 78.3535 13.4186 78.791 14.166C79.2285 14.9134 79.5658 15.7201 79.8027 16.5859C80.0488 17.4518 80.1719 18.3496 80.1719 19.2793ZM76.2754 19.2793C76.2754 18.4225 76.1113 17.6159 75.7832 16.8594C75.4551 16.0938 75.0085 15.4329 74.4434 14.877C73.8874 14.3118 73.2266 13.8652 72.4609 13.5371C71.7044 13.209 70.8978 13.0449 70.041 13.0449C69.1751 13.0449 68.3639 13.209 67.6074 13.5371C66.8509 13.8652 66.1901 14.3118 65.625 14.877C65.0599 15.4329 64.6133 16.0938 64.2852 16.8594C63.957 17.6159 63.793 18.4225 63.793 19.2793C63.793 20.1361 63.957 20.9427 64.2852 21.6992C64.6133 22.4466 65.0599 23.1029 65.625 23.668C66.1901 24.2331 66.8509 24.6797 67.6074 25.0078C68.3639 25.3359 69.1751 25.5 70.041 25.5C70.8978 25.5 71.7044 25.3359 72.4609 25.0078C73.2266 24.6797 73.8874 24.2331 74.4434 23.668C75.0085 23.1029 75.4551 22.4466 75.7832 21.6992C76.1113 20.9427 76.2754 20.1361 76.2754 19.2793ZM98.3555 27.0176C97.444 27.7923 96.4277 28.3893 95.3066 28.8086C94.1855 29.2188 93.0189 29.4238 91.8066 29.4238C90.877 29.4238 89.9792 29.3008 89.1133 29.0547C88.2565 28.8177 87.4544 28.4805 86.707 28.043C85.9596 27.5964 85.276 27.0677 84.6562 26.457C84.0365 25.8372 83.5078 25.1536 83.0703 24.4062C82.6328 23.6497 82.291 22.8385 82.0449 21.9727C81.8079 21.1068 81.6895 20.209 81.6895 19.2793C81.6895 18.3496 81.8079 17.4564 82.0449 16.5996C82.291 15.7428 82.6328 14.9408 83.0703 14.1934C83.5078 13.4368 84.0365 12.7533 84.6562 12.1426C85.276 11.5228 85.9596 10.9941 86.707 10.5566C87.4544 10.1191 88.2565 9.7819 89.1133 9.54492C89.9792 9.29883 90.877 9.17578 91.8066 9.17578C93.0189 9.17578 94.1855 9.38542 95.3066 9.80469C96.4277 10.2148 97.444 10.8073 98.3555 11.582L96.3047 15C95.7122 14.3984 95.0286 13.929 94.2539 13.5918C93.4792 13.2454 92.6634 13.0723 91.8066 13.0723C90.9499 13.0723 90.1432 13.2363 89.3867 13.5645C88.6393 13.8926 87.9831 14.3392 87.418 14.9043C86.8529 15.4603 86.4062 16.1165 86.0781 16.873C85.75 17.6204 85.5859 18.4225 85.5859 19.2793C85.5859 20.1452 85.75 20.9564 86.0781 21.7129C86.4062 22.4694 86.8529 23.1302 87.418 23.6953C87.9831 24.2604 88.6393 24.707 89.3867 25.0352C90.1432 25.3633 90.9499 25.5273 91.8066 25.5273C92.2988 25.5273 92.7773 25.4681 93.2422 25.3496C93.707 25.2311 94.1491 25.0671 94.5684 24.8574V19.2793H98.3555V27.0176ZM105.301 29H101.377V9.39453H105.301V29ZM107.803 15.2734C107.803 14.4622 107.958 13.7012 108.268 12.9902C108.577 12.2793 108.997 11.6595 109.525 11.1309C110.063 10.5931 110.688 10.1693 111.398 9.85938C112.109 9.54948 112.87 9.39453 113.682 9.39453H122.678V13.3184H113.682C113.408 13.3184 113.153 13.3685 112.916 13.4688C112.679 13.569 112.469 13.7103 112.287 13.8926C112.114 14.0658 111.977 14.2708 111.877 14.5078C111.777 14.7448 111.727 15 111.727 15.2734C111.727 15.5469 111.777 15.8066 111.877 16.0527C111.977 16.2897 112.114 16.4993 112.287 16.6816C112.469 16.8548 112.679 16.9915 112.916 17.0918C113.153 17.1921 113.408 17.2422 113.682 17.2422H117.605C118.417 17.2422 119.178 17.3971 119.889 17.707C120.609 18.0078 121.233 18.4271 121.762 18.9648C122.299 19.4935 122.719 20.1178 123.02 20.8379C123.329 21.5488 123.484 22.3099 123.484 23.1211C123.484 23.9323 123.329 24.6934 123.02 25.4043C122.719 26.1152 122.299 26.7396 121.762 27.2773C121.233 27.806 120.609 28.2253 119.889 28.5352C119.178 28.8451 118.417 29 117.605 29H108.896V25.0762H117.605C117.879 25.0762 118.134 25.026 118.371 24.9258C118.608 24.8255 118.813 24.6888 118.986 24.5156C119.169 24.3333 119.31 24.1237 119.41 23.8867C119.51 23.6497 119.561 23.3945 119.561 23.1211C119.561 22.8477 119.51 22.5924 119.41 22.3555C119.31 22.1185 119.169 21.9134 118.986 21.7402C118.813 21.5579 118.608 21.4167 118.371 21.3164C118.134 21.2161 117.879 21.166 117.605 21.166H113.682C112.87 21.166 112.109 21.0111 111.398 20.7012C110.688 20.3913 110.063 19.972 109.525 19.4434C108.997 18.9056 108.577 18.2812 108.268 17.5703C107.958 16.8503 107.803 16.0846 107.803 15.2734ZM134.025 29H130.115V13.3184H124.223V9.39453H139.904V13.3184H134.025V29ZM145.906 29H141.982V9.39453H145.906V29ZM165.211 26.9902C164.299 27.7741 163.279 28.3757 162.148 28.7949C161.018 29.2142 159.847 29.4238 158.635 29.4238C157.705 29.4238 156.807 29.3008 155.941 29.0547C155.085 28.8177 154.278 28.4805 153.521 28.043C152.774 27.5964 152.09 27.0632 151.471 26.4434C150.851 25.8236 150.318 25.14 149.871 24.3926C149.434 23.6361 149.092 22.8294 148.846 21.9727C148.609 21.1068 148.49 20.209 148.49 19.2793C148.49 18.3496 148.609 17.4518 148.846 16.5859C149.092 15.7201 149.434 14.9134 149.871 14.166C150.318 13.4095 150.851 12.7214 151.471 12.1016C152.09 11.4818 152.774 10.9531 153.521 10.5156C154.278 10.069 155.085 9.72721 155.941 9.49023C156.807 9.24414 157.705 9.12109 158.635 9.12109C159.847 9.12109 161.018 9.33073 162.148 9.75C163.279 10.1602 164.299 10.7617 165.211 11.5547L163.133 14.9727C162.559 14.3529 161.88 13.8789 161.096 13.5508C160.312 13.2135 159.492 13.0449 158.635 13.0449C157.769 13.0449 156.958 13.209 156.201 13.5371C155.445 13.8652 154.784 14.3118 154.219 14.877C153.654 15.4329 153.207 16.0938 152.879 16.8594C152.551 17.6159 152.387 18.4225 152.387 19.2793C152.387 20.1361 152.551 20.9427 152.879 21.6992C153.207 22.4466 153.654 23.1029 154.219 23.668C154.784 24.2331 155.445 24.6797 156.201 25.0078C156.958 25.3359 157.769 25.5 158.635 25.5C159.492 25.5 160.312 25.3359 161.096 25.0078C161.88 24.6706 162.559 24.1921 163.133 23.5723L165.211 26.9902ZM166.1 15.2734C166.1 14.4622 166.255 13.7012 166.564 12.9902C166.874 12.2793 167.294 11.6595 167.822 11.1309C168.36 10.5931 168.984 10.1693 169.695 9.85938C170.406 9.54948 171.167 9.39453 171.979 9.39453H180.975V13.3184H171.979C171.705 13.3184 171.45 13.3685 171.213 13.4688C170.976 13.569 170.766 13.7103 170.584 13.8926C170.411 14.0658 170.274 14.2708 170.174 14.5078C170.074 14.7448 170.023 15 170.023 15.2734C170.023 15.5469 170.074 15.8066 170.174 16.0527C170.274 16.2897 170.411 16.4993 170.584 16.6816C170.766 16.8548 170.976 16.9915 171.213 17.0918C171.45 17.1921 171.705 17.2422 171.979 17.2422H175.902C176.714 17.2422 177.475 17.3971 178.186 17.707C178.906 18.0078 179.53 18.4271 180.059 18.9648C180.596 19.4935 181.016 20.1178 181.316 20.8379C181.626 21.5488 181.781 22.3099 181.781 23.1211C181.781 23.9323 181.626 24.6934 181.316 25.4043C181.016 26.1152 180.596 26.7396 180.059 27.2773C179.53 27.806 178.906 28.2253 178.186 28.5352C177.475 28.8451 176.714 29 175.902 29H167.193V25.0762H175.902C176.176 25.0762 176.431 25.026 176.668 24.9258C176.905 24.8255 177.11 24.6888 177.283 24.5156C177.465 24.3333 177.607 24.1237 177.707 23.8867C177.807 23.6497 177.857 23.3945 177.857 23.1211C177.857 22.8477 177.807 22.5924 177.707 22.3555C177.607 22.1185 177.465 21.9134 177.283 21.7402C177.11 21.5579 176.905 21.4167 176.668 21.3164C176.431 21.2161 176.176 21.166 175.902 21.166H171.979C171.167 21.166 170.406 21.0111 169.695 20.7012C168.984 20.3913 168.36 19.972 167.822 19.4434C167.294 18.9056 166.874 18.2812 166.564 17.5703C166.255 16.8503 166.1 16.0846 166.1 15.2734Z" fill="#FFD336"/>
<path d="M201.44 23.3743C202.021 23.3743 202.538 23.8905 202.538 24.4713V24.5358C202.538 25.1166 202.021 25.6328 201.44 25.6328H197.82H196.463C195.881 25.6328 195.364 26.1491 195.364 26.7298V26.7944C195.364 27.3751 195.881 27.8914 196.463 27.8914H198.661H213.72C221.54 19.696 224.061 9.43573 219.213 4.01519C219.019 3.75707 218.761 3.56348 218.502 3.30536H214.237H210.1H200.341C199.759 3.30536 199.242 3.8216 199.242 4.40237V4.4669C199.242 5.04768 199.759 5.56392 200.341 5.56392H208.355H211.393C211.975 5.56392 212.492 6.08016 212.492 6.66093V6.72546C212.492 7.30623 211.975 7.82248 211.393 7.82248H207.903H202.409C201.827 7.82248 201.31 8.33872 201.31 8.91949V8.98402C201.31 9.56479 201.827 10.081 202.409 10.081H207.45H215.723C216.305 10.081 216.822 10.5973 216.822 11.178V11.2426C216.822 11.8233 216.305 12.3396 215.723 12.3396H206.933H192.521C191.939 12.3396 191.422 12.8558 191.422 13.4366V13.5011C191.422 14.0819 191.939 14.5981 192.521 14.5981H200.599H202.021C202.603 14.5981 203.12 15.1144 203.12 15.6952V15.7597C203.12 16.3405 202.603 16.8567 202.021 16.8567H200.599H197.433C196.851 16.8567 196.334 17.3729 196.334 17.9537V18.0183C196.334 18.599 196.851 19.1153 197.433 19.1153H205.511H207.45C208.032 19.1153 208.549 19.6315 208.549 20.2123V20.0187C208.549 20.5995 208.032 21.1157 207.45 21.1157H204.994H191.099C190.517 21.1157 190 21.6319 190 22.2127V22.2772C190 22.858 190.517 23.3743 191.099 23.3743H191.228H198.337H201.44ZM214.689 7.75794C214.043 7.75794 213.59 7.2417 213.59 6.66093C213.59 6.01563 214.107 5.56392 214.689 5.56392C215.335 5.56392 215.788 6.08016 215.788 6.66093C215.788 7.2417 215.335 7.75794 214.689 7.75794ZM212.298 20.0187C212.298 20.664 211.781 21.1157 211.199 21.1157C210.553 21.1157 210.1 20.5995 210.1 20.0187C210.1 19.3734 210.617 18.9217 211.199 18.9217C211.845 18.8571 212.298 19.3734 212.298 20.0187ZM205.835 16.6631C205.253 16.6631 204.736 16.1469 204.736 15.5661V15.5016C204.736 14.9208 205.253 14.4046 205.835 14.4046H209.389C209.971 14.4046 210.488 14.9208 210.488 15.5016V15.5661C210.488 16.1469 209.971 16.6631 209.389 16.6631H205.835Z" fill="url(#paint0_linear)"/>
<path d="M230.136 21.8255H226.129L229.813 4.53145C229.942 3.82162 229.49 3.24084 228.779 3.24084H221.605C221.863 3.43444 222.057 3.69256 222.316 3.95068C227.163 9.37122 224.642 19.6315 216.822 27.8269H228.908C229.619 27.8269 230.33 27.2461 230.459 26.5363L231.17 23.1162C231.299 22.4063 230.847 21.8255 230.136 21.8255Z" fill="url(#paint1_linear)"/>
<path d="M245.647 23.3743H245.389L246.1 20.0832C246.229 19.3734 246.1 18.2764 245.712 17.6311L241.059 9.30669C240.735 8.66138 239.831 8.14514 239.12 8.14514H230.33C229.619 8.14514 228.908 8.72591 228.779 9.43575L225.159 26.4717C225.03 27.1816 225.482 27.7623 226.193 27.7623H243.191C243.256 27.7623 243.256 27.7623 243.321 27.7623C243.385 27.7623 243.385 27.7623 243.45 27.7623H244.807C245.26 27.7623 245.777 27.3752 245.841 26.9234L246.423 24.2132C246.488 23.7615 246.164 23.3743 245.647 23.3743Z" fill="url(#paint2_linear)"/>
<path d="M242.933 17.3729C242.868 17.6956 242.416 18.0182 241.899 18.0182H231.041C230.588 18.0182 230.265 17.6311 230.33 17.1794L231.687 10.7909C231.816 10.3391 232.269 9.95197 232.721 9.95197H238.344C238.796 9.95197 239.378 10.2746 239.637 10.7263L242.61 16.0178C242.868 16.405 242.997 17.0503 242.933 17.3729Z" fill="white"/>
<path d="M239.055 27.8268C238.538 30.2144 236.211 32.1503 233.755 32.1503C231.364 32.1503 229.813 30.2144 230.33 27.8268C230.847 25.4392 233.174 23.5033 235.63 23.5033C238.021 23.5033 239.507 25.4392 239.055 27.8268Z" fill="url(#paint3_linear)"/>
<path d="M236.47 27.8269C236.276 28.7948 235.306 29.6337 234.272 29.6337C233.303 29.6337 232.657 28.7948 232.85 27.8269C233.044 26.8589 234.014 26.02 235.048 26.02C236.082 26.02 236.664 26.7944 236.47 27.8269Z" fill="white"/>
<path d="M212.039 27.8268C211.522 30.2144 209.195 32.1503 206.739 32.1503C204.348 32.1503 202.797 30.2144 203.314 27.8268C203.831 25.4392 206.158 23.5033 208.614 23.5033C211.005 23.5033 212.556 25.4392 212.039 27.8268Z" fill="url(#paint4_linear)"/>
<path d="M209.519 27.8269C209.325 28.7948 208.355 29.6337 207.321 29.6337C206.352 29.6337 205.705 28.7948 205.899 27.8269C206.093 26.8589 207.063 26.02 208.097 26.02C209.131 26.02 209.712 26.7944 209.519 27.8269Z" fill="white"/>
<path d="M216.951 29.0529C210.682 34.6671 203.249 37.5064 197.433 36.9256C202.603 36.4739 208.614 33.6991 213.849 29.0529C223.22 20.664 226.517 9.1131 221.281 3.30538C219.601 1.43401 217.145 0.336993 214.366 0.078872C218.438 -0.308309 222.057 0.724174 224.319 3.30538C229.684 9.1131 226.323 20.5995 216.951 29.0529Z" fill="url(#paint5_linear)"/>
<defs>
<linearGradient id="paint0_linear" x1="231.041" y1="15.5418" x2="188.814" y2="15.5418" gradientUnits="userSpaceOnUse">
<stop offset="0.1241" stop-color="#FE0600"/>
<stop offset="0.8621" stop-color="#FFB904"/>
</linearGradient>
<linearGradient id="paint1_linear" x1="217.072" y1="17.9954" x2="252.308" y2="7.51859" gradientUnits="userSpaceOnUse">
<stop stop-color="#9700F2"/>
<stop offset="1" stop-color="#3F7AFF"/>
</linearGradient>
<linearGradient id="paint2_linear" x1="218.73" y1="23.5712" x2="253.966" y2="13.0944" gradientUnits="userSpaceOnUse">
<stop stop-color="#9700F2"/>
<stop offset="1" stop-color="#3F7AFF"/>
</linearGradient>
<linearGradient id="paint3_linear" x1="221.181" y1="31.8125" x2="256.416" y2="21.3356" gradientUnits="userSpaceOnUse">
<stop stop-color="#9700F2"/>
<stop offset="1" stop-color="#3F7AFF"/>
</linearGradient>
<linearGradient id="paint4_linear" x1="231.041" y1="27.8125" x2="188.813" y2="27.8125" gradientUnits="userSpaceOnUse">
<stop offset="0.1241" stop-color="#FE0600"/>
<stop offset="0.8621" stop-color="#FFB904"/>
</linearGradient>
<linearGradient id="paint5_linear" x1="216.494" y1="16.0508" x2="251.729" y2="5.57412" gradientUnits="userSpaceOnUse">
<stop stop-color="#9700F2"/>
<stop offset="1" stop-color="#3F7AFF"/>
</linearGradient>
</defs>
</svg>
